<svg width="223" height="46" viewBox="0 0 223 46" fill="none" xmlns="http://www.w3.org/2000/svg">
<circle cx="22.8227" cy="22.8227" r="22.8227" fill="url(#paint0_radial_339_10042)"/>
<circle cx="22.8227" cy="22.8227" r="22.8227" fill="url(#paint1_radial_339_10042)"/>
<path d="M86.6073 38.3037H78.7293V22.7247L67.7974 38.3037H61.6455V7.32275H69.5678V22.9017L80.4996 7.32275H86.6073V38.3037Z" fill="white"/>
<path d="M95.2733 7.32275H118.509V14.9795H110.852V38.3037H102.93V14.9795H95.2733V7.32275Z" fill="white"/>
<path d="M127.136 7.32275H139.174C142.302 7.32275 144.928 8.3407 147.052 10.3766C149.177 12.4125 150.239 15.009 150.239 18.1661C150.239 21.3232 149.177 23.9197 147.052 25.9556C144.928 27.9915 142.302 29.0094 139.174 29.0094H135.058V38.3037H127.136V7.32275ZM135.058 21.4855H139.174C140.059 21.4855 140.797 21.1757 141.387 20.556C142.007 19.9364 142.317 19.1398 142.317 18.1661C142.317 17.1924 142.007 16.4105 141.387 15.8204C140.797 15.2008 140.059 14.891 139.174 14.891H135.058V21.4855Z" fill="white"/>
<path d="M169.824 19.9807L174.781 7.32275H182.88L173.94 28.7881C172.524 32.1518 170.665 34.6155 168.364 36.1793C166.092 37.7431 163.274 38.4512 159.91 38.3037V30.9125C162.713 31.1486 164.779 30.3962 166.107 28.6553L155.971 7.32275H164.115L169.824 19.9807Z" fill="white"/>
<path d="M215.052 7.32275H222.93V38.3037H215.052V21.6182L207.528 34.0549H206.732L199.252 21.6625V38.3037H191.33V7.32275H199.252L207.13 20.556L215.052 7.32275Z" fill="white"/>
<defs>
<radialGradient id="paint0_radial_339_10042" cx="0" cy="0" r="1" gradientUnits="userSpaceOnUse" gradientTransform="translate(19.9892 25.8623) rotate(-45.2292) scale(36.4294)">
<stop stop-color="#161616"/>
<stop offset="1" stop-color="#9300FC"/>
</radialGradient>
<radialGradient id="paint1_radial_339_10042" cx="0" cy="0" r="1" gradientUnits="userSpaceOnUse" gradientTransform="translate(12.416 33.7962) rotate(-45.4844) scale(47.3959)">
<stop offset="0.328568" stop-color="#161616"/>
<stop offset="1" stop-color="#9300FC"/>
</radialGradient>
</defs>
</svg>
